<svg viewBox="0 0 15 9" fill="none" xmlns="http://www.w3.org/2000/svg">
<path d="M8.0853 8.66716L14.7604 1.99197C14.9149 1.83758 15 1.63148 15 1.41173C15 1.19197 14.9149 0.985877 14.7604 0.831488L14.2689 0.339907C13.9487 0.0200314 13.4282 0.0200314 13.1084 0.339907L7.50311 5.94523L1.89157 0.333687C1.73706 0.179298 1.53109 0.0940546 1.31146 0.0940546C1.09158 0.0940546 0.885606 0.179298 0.730973 0.333687L0.239636 0.825268C0.085125 0.979779 4.1776e-06 1.18575 4.168e-06 1.40551C4.15839e-06 1.62526 0.0851249 1.83136 0.239636 1.98575L6.9208 8.66716C7.0758 8.82191 7.28275 8.90691 7.50275 8.90642C7.7236 8.90691 7.93042 8.82191 8.0853 8.66716Z" fill="black"/>
</svg>
