<svg width="40" height="40" viewBox="0 0 40 40" fill="none" xmlns="http://www.w3.org/2000/svg">
<circle opacity="1" r="20" transform="matrix(-1 0 0 1 20 20)" fill="white"/>
<path d="M22.2103 24.6805C22.3216 24.5962 22.3894 24.4775 22.3988 24.3504C22.4083 24.2233 22.3586 24.0982 22.2607 24.0025L18.11 19.9925L22.2607 15.9825C22.3512 15.886 22.3949 15.7632 22.3826 15.6398C22.3702 15.5163 22.338 15.4084 22.1945 15.3199C22.0511 15.2314 21.9452 15.1953 21.801 15.2005C21.6568 15.2057 21.5205 15.2584 21.4205 15.3478L16.9393 19.6751C16.8495 19.7629 16.8 19.8757 16.8 19.9925C16.8 20.1093 16.8495 20.2221 16.9393 20.3098L21.4205 24.6372C21.5186 24.7327 21.6569 24.7909 21.805 24.7991C21.953 24.8072 22.0988 24.7645 22.2103 24.6805Z" fill="black"/>
</svg>
