<svg width="7" height="12" viewBox="0 0 7 12" fill="none" xmlns="http://www.w3.org/2000/svg">
<path d="M6.76288 11.8507C6.90199 11.7454 6.98676 11.597 6.99858 11.4381C7.01039 11.2792 6.94829 11.1228 6.82589 11.0032L1.63754 5.99067L6.82589 0.978135C6.93906 0.857526 6.99363 0.704074 6.97821 0.549775C6.9628 0.395475 6.92246 0.260547 6.74315 0.14993C6.56385 0.0393125 6.43149 -0.00586205 6.25123 0.000631417C6.07098 0.00712489 5.9006 0.0730939 5.77562 0.184784L0.17416 5.594C0.061907 5.70368 2.55479e-07 5.84468 2.61861e-07 5.99067C2.68242e-07 6.13667 0.061907 6.27767 0.17416 6.38735L5.77562 11.7966C5.89828 11.916 6.07112 11.9887 6.25621 11.9989C6.44131 12.009 6.62353 11.9557 6.76288 11.8507Z" fill="#8B5E3B"/>
</svg>
