<svg viewBox="0 0 15 16" fill="none" xmlns="http://www.w3.org/2000/svg">
<path d="M14.2518 13.4263H4.22137C3.80796 13.4263 3.4729 13.0912 3.4729 12.6778C3.4729 12.2644 3.80796 11.9294 4.22137 11.9294H14.2516C14.665 11.9294 15 12.2644 15 12.6778C15 13.0912 14.6652 13.4263 14.2518 13.4263Z" fill="white"/>
<path d="M14.2518 8.72816H4.22137C3.80796 8.72816 3.4729 8.3931 3.4729 7.9797C3.4729 7.56629 3.80796 7.23123 4.22137 7.23123H14.2516C14.665 7.23123 15 7.56629 15 7.9797C15.0003 8.3931 14.6652 8.72816 14.2518 8.72816Z" fill="white"/>
<path d="M14.2518 4.03004H4.22137C3.80796 4.03004 3.4729 3.69498 3.4729 3.28158C3.4729 2.86817 3.80796 2.53311 4.22137 2.53311H14.2516C14.665 2.53311 15 2.86817 15 3.28158C15 3.69498 14.6652 4.03004 14.2518 4.03004Z" fill="white"/>
<path d="M1.00519 4.34464C1.56034 4.34464 2.01038 3.8946 2.01038 3.33945C2.01038 2.7843 1.56034 2.33426 1.00519 2.33426C0.450039 2.33426 0 2.7843 0 3.33945C0 3.8946 0.450039 4.34464 1.00519 4.34464Z" fill="white"/>
<path d="M1.00519 8.98487C1.56034 8.98487 2.01038 8.53483 2.01038 7.97968C2.01038 7.42453 1.56034 6.97449 1.00519 6.97449C0.450039 6.97449 0 7.42453 0 7.97968C0 8.53483 0.450039 8.98487 1.00519 8.98487Z" fill="white"/>
<path d="M1.00519 13.6251C1.56034 13.6251 2.01038 13.1751 2.01038 12.6199C2.01038 12.0648 1.56034 11.6147 1.00519 11.6147C0.450039 11.6147 0 12.0648 0 12.6199C0 13.1751 0.450039 13.6251 1.00519 13.6251Z" fill="white"/>
</svg>
