<svg width="14" height="14" viewBox="0 0 14 14" fill="none" xmlns="http://www.w3.org/2000/svg">
<path d="M13.3617 12.7518L10.017 9.28631C10.8769 8.26788 11.3481 6.98648 11.3481 5.65249C11.3481 2.53576 8.8027 0 5.67407 0C2.54544 0 0 2.53576 0 5.65249C0 8.76923 2.54544 11.305 5.67407 11.305C6.8486 11.305 7.96787 10.9521 8.92482 10.2821L12.295 13.7739C12.4358 13.9196 12.6253 14 12.8283 14C13.0205 14 13.2028 13.927 13.3412 13.7943C13.6353 13.5124 13.6447 13.045 13.3617 12.7518ZM5.67407 1.47456C7.98662 1.47456 9.86795 3.34873 9.86795 5.65249C9.86795 7.95625 7.98662 9.83043 5.67407 9.83043C3.36152 9.83043 1.48019 7.95625 1.48019 5.65249C1.48019 3.34873 3.36152 1.47456 5.67407 1.47456Z" fill="#8B5E3B"/>
</svg>
