<svg width="40" height="40" viewBox="0 0 40 40" fill="none" xmlns="http://www.w3.org/2000/svg">
<circle opacity="1" cx="20" cy="20" r="20" fill="white"/>
<path d="M17.7897 24.6805C17.6784 24.5962 17.6105 24.4775 17.6011 24.3504C17.5916 24.2233 17.6413 24.0982 17.7392 24.0025L21.8899 19.9925L17.7392 15.9825C17.6487 15.886 17.605 15.7632 17.6174 15.6398C17.6297 15.5163 17.662 15.4084 17.8054 15.3199C17.9489 15.2314 18.0548 15.1953 18.199 15.2005C18.3432 15.2057 18.4795 15.2584 18.5795 15.3478L23.0606 19.6751C23.1504 19.7629 23.2 19.8757 23.2 19.9925C23.2 20.1093 23.1504 20.2221 23.0606 20.3098L18.5795 24.6372C18.4813 24.7327 18.3431 24.7909 18.195 24.7991C18.0469 24.8072 17.9011 24.7645 17.7897 24.6805Z" fill="black"/>
</svg>
