<svg width="7" height="12" viewBox="0 0 7 12" fill="none" xmlns="http://www.w3.org/2000/svg">
<path d="M0.237124 11.8507C0.0980062 11.7454 0.0132374 11.597 0.00142286 11.4381C-0.0103917 11.2792 0.0517135 11.1228 0.174108 11.0032L5.36246 5.99067L0.174108 0.978135C0.0609374 0.857526 0.00637099 0.704074 0.0217857 0.549775C0.0372004 0.395475 0.0775409 0.260547 0.256847 0.14993C0.436153 0.0393125 0.568508 -0.00586205 0.748765 0.000631417C0.929023 0.00712489 1.0994 0.0730939 1.22438 0.184784L6.82584 5.594C6.93809 5.70368 7 5.84468 7 5.99067C7 6.13667 6.93809 6.27767 6.82584 6.38735L1.22438 11.7966C1.10172 11.916 0.928879 11.9887 0.743786 11.9989C0.558693 12.009 0.376475 11.9557 0.237124 11.8507Z" fill="#FFD400"/>
</svg>
