<svg width="16" height="16" viewBox="0 0 16 16" fill="none" xmlns="http://www.w3.org/2000/svg">
<path d="M15.2705 14.5735L11.4479 10.6129C12.4308 9.44901 12.9693 7.98455 12.9693 6.45999C12.9693 2.89801 10.0602 0 6.48465 0C2.90907 0 0 2.89801 0 6.45999C0 10.022 2.90907 12.92 6.48465 12.92C7.82697 12.92 9.10614 12.5167 10.1998 11.751L14.0514 15.7416C14.2124 15.9082 14.4289 16 14.6609 16C14.8806 16 15.0889 15.9166 15.2471 15.7649C15.5832 15.4428 15.5939 14.9085 15.2705 14.5735ZM6.48465 1.68522C9.12757 1.68522 11.2777 3.82713 11.2777 6.45999C11.2777 9.09286 9.12757 11.2348 6.48465 11.2348C3.84173 11.2348 1.69165 9.09286 1.69165 6.45999C1.69165 3.82713 3.84173 1.68522 6.48465 1.68522Z" fill="#FB4B54"/>
</svg>
