<svg width="6" height="11" viewBox="0 0 6 11" fill="none" xmlns="http://www.w3.org/2000/svg">
<path d="M5.79675 0.699477C5.91599 0.789723 5.98865 0.916895 5.99878 1.05308C6.00891 1.18926 5.95567 1.32333 5.85076 1.42586L1.40361 5.72232L5.85076 10.0188C5.94777 10.1222 5.99454 10.2537 5.98133 10.3859C5.96811 10.5182 5.93354 10.6339 5.77985 10.7287C5.62615 10.8235 5.51271 10.8622 5.3582 10.8566C5.20369 10.8511 5.05765 10.7945 4.95053 10.6988L0.149279 6.06232C0.0530627 5.96831 -2.18982e-07 5.84745 -2.24452e-07 5.72232C-2.29922e-07 5.59718 0.0530627 5.47632 0.149279 5.38231L4.95053 0.745842C5.05567 0.643485 5.20382 0.581116 5.36247 0.572423C5.52112 0.563731 5.67731 0.609425 5.79675 0.699477Z" fill="#8B5E3B"/>
</svg>
