<svg width="7" height="12" viewBox="0 0 7 12" fill="none" xmlns="http://www.w3.org/2000/svg">
<path d="M6.76285 11.8506C6.90196 11.7453 6.98673 11.5969 6.99855 11.4381C7.01036 11.2792 6.94826 11.1228 6.82586 11.0031L1.63751 5.99061L6.82586 0.978074C6.93903 0.857465 6.9936 0.704013 6.97818 0.549714C6.96277 0.395414 6.92243 0.260486 6.74312 0.149869C6.56382 0.0392514 6.43146 -0.00592309 6.2512 0.000570382C6.07095 0.00706385 5.90057 0.0730329 5.77559 0.184723L0.174129 5.59394C0.0618765 5.70362 -3.02621e-05 5.84462 -3.02557e-05 5.99061C-3.02493e-05 6.1366 0.0618765 6.27761 0.174129 6.38729L5.77559 11.7965C5.89825 11.9159 6.07109 11.9887 6.25618 11.9988C6.44128 12.009 6.62349 11.9557 6.76285 11.8506Z" fill="#8B5E3B"/>
</svg>
