<svg width="4" height="7" viewBox="0 0 4 7" fill="none" xmlns="http://www.w3.org/2000/svg">
<path d="M0.135499 6.7718C0.0560033 6.71164 0.00756402 6.62686 0.00081296 6.53607C-0.00593833 6.44528 0.0295505 6.3559 0.0994899 6.28755L3.06426 3.42324L0.0994901 0.558934C0.034821 0.490015 0.0036404 0.402328 0.0124488 0.314157C0.0212572 0.225986 0.0443089 0.148884 0.14677 0.0856743C0.24923 0.0224643 0.324862 -0.00334974 0.427866 0.00036081C0.53087 0.00407136 0.62823 0.0417679 0.699646 0.105591L3.90048 3.19657C3.96462 3.25924 4 3.33982 4 3.42324C4 3.50667 3.96462 3.58724 3.90048 3.64991L0.699646 6.74089C0.629556 6.80913 0.530788 6.85071 0.425021 6.8565C0.319253 6.8623 0.215128 6.83184 0.135499 6.7718Z" fill="#FFD400"/>
</svg>
